<svg width="1494" height="587" xmlns="http://www.w3.org/2000/svg" xmlns:xlink="http://www.w3.org/1999/xlink" xml:space="preserve" overflow="hidden"><g transform="translate(-220 -68)"><g><text fill="#000000" fill-opacity="1" font-family="IBM Plex Sans,IBM Plex Sans_MSFontService,sans-serif" font-style="normal" font-variant="normal" font-weight="400" font-stretch="normal" font-size="248" text-anchor="start" direction="ltr" writing-mode="lr-tb" unicode-bidi="normal" text-decoration="none" transform="matrix(1 0 0 1 583 441)">RayFlare</text><g><g><g><g><path d="M344.459 325.472 372.241 297.691 415.323 297.691 443.103 325.472 443.103 364.761 415.323 392.541 372.241 392.541 344.459 364.761Z" stroke="#000000" stroke-width="5.69098" stroke-linecap="round" stroke-linejoin="miter" stroke-miterlimit="8" stroke-opacity="1" fill="#A6A6A6" fill-rule="evenodd" fill-opacity="0.458824"/><path d="M534.159 112.969 571.385 75.7426 625.928 75.7426 663.154 112.969 663.154 165.615 625.928 202.841 571.385 202.841 534.159 165.615Z" stroke="#000000" stroke-width="5.69098" stroke-linecap="round" stroke-linejoin="miter" stroke-miterlimit="8" stroke-opacity="1" fill="#A6A6A6" fill-rule="evenodd" fill-opacity="0.458824"/><path d="M344.459 250.266 474.563 245.224 386.131 149.663 481.692 238.095 486.734 107.992 491.776 238.095 587.337 149.663 498.905 245.224 629.008 250.266 498.905 255.308 587.337 350.869 491.776 262.437 486.734 392.541 481.692 262.437 386.131 350.869 474.563 255.308Z" stroke="#000000" stroke-width="5.69098" stroke-linecap="round" stroke-linejoin="miter" stroke-miterlimit="8" stroke-opacity="1" fill="#FFFFFF" fill-rule="evenodd" fill-opacity="1"/><path d="M264.785 417.773 288.12 394.438 321.124 394.438 344.459 417.773 344.459 450.777 321.124 474.111 288.12 474.111 264.785 450.777Z" stroke="#000000" stroke-width="5.69098" stroke-linecap="round" stroke-linejoin="miter" stroke-miterlimit="8" stroke-opacity="1" fill="#A6A6A6" fill-rule="evenodd" fill-opacity="0.458824"/><path d="M225.897 483.72 236.454 473.163 253.28 473.163 263.837 483.72 263.837 498.649 253.28 509.206 236.454 509.206 225.897 498.649Z" stroke="#000000" stroke-width="4.04692" stroke-linecap="round" stroke-linejoin="miter" stroke-miterlimit="8" stroke-opacity="1" fill="#A6A6A6" fill-rule="evenodd" fill-opacity="0.458824"/><path d="M314.107 381.866 331.888 364.086 358.93 364.086 376.708 381.866 376.708 407.011 358.93 424.79 331.888 424.79 314.107 407.011Z" stroke="#000000" stroke-width="5.05866" stroke-linecap="round" stroke-linejoin="miter" stroke-miterlimit="8" stroke-opacity="1" fill="#A6A6A6" fill-rule="evenodd" fill-opacity="0.458824"/></g></g></g></g></g></g></svg>